<svg id="Layer_1" data-name="Layer 1" xmlns="http://www.w3.org/2000/svg" width="190" height="218" viewBox="0 0 190 218"><polygon points="95 0.4 189.9 55.2 189.9 164.8 95 219.6 0.1 164.8 0.1 55.2 95 0.4"/><path d="M41.4,154.5l-4.2-6a2,2,0,0,1,.2-2.1l14.9-17.7H45a1.7,1.7,0,0,1-1.8-1.8V114a1.7,1.7,0,0,1,1.8-1.8H55.4a49.4,49.4,0,0,1-2-13.7,42.6,42.6,0,0,1,85.2,0,45.9,45.9,0,0,1-2,13.7H147a1.7,1.7,0,0,1,1.8,1.8v12.9a1.7,1.7,0,0,1-1.8,1.8h-9.2l14.8,17.7a1.8,1.8,0,0,1,0,2.1l-4.1,6a2,2,0,0,1-2.4.5l-8.6-4.5H52.3L43.7,155A1.9,1.9,0,0,1,41.4,154.5Zm27.3-25.8H56.8L41,147.4l2.5,3.6,30.4-16ZM46.8,115.8v9.3h98.4v-9.3Zm12.4-3.6h73.6A45.2,45.2,0,0,0,135,98.5a39,39,0,0,0-78,0C57,103.2,57.4,108,59.2,112.2Zm17.3,25.7-17.1,9H83.8Zm-3.1-9.2,15.1,18.2h13l15.1-18.2Zm40.1,9.2-7.3,9h24.4Zm19.7-9.2H121.3l-5.4,6.3,30.6,16,2.5-3.4Z" fill="#fff"/></svg>