<svg id="Layer_1" data-name="Layer 1" xmlns="http://www.w3.org/2000/svg" width="189" height="220" viewBox="0 0 189 220"><polygon points="94 0.4 188.9 55.2 188.9 164.8 94 219.6 -0.9 164.8 -0.9 55.2 94 0.4"/><path d="M38.9,150.5a1.8,1.8,0,1,1,0-3.6h9V135.6h-9a1.7,1.7,0,0,1-1.8-1.8V98.3a1.7,1.7,0,0,1,1.8-1.8H50.8c.9-25.6,20-39.6,43.2-39.6s42.3,14,43.2,39.6h11.9a1.7,1.7,0,0,1,1.8,1.8v35.5a1.7,1.7,0,0,1-1.8,1.8h-9v11.3h9a1.8,1.8,0,1,1,0,3.6Zm1.8-50.4V132H147.3V100.1Zm10.8,35.5v11.3H63V135.6Zm2.9-39.1h79.2c-.9-23.2-18.5-36-39.6-36S55.3,73.3,54.4,96.5Zm12.2,39.1v11.3h18V135.6Zm21.6,0v11.3H99.8V135.6ZM137,123.3H93.1a1.8,1.8,0,0,1,0-3.6H137a1.8,1.8,0,1,1,0,3.6Zm-33.6,12.3v11.3h18V135.6Zm21.6,0v11.3h11.5V135.6Z" fill="#fff"/></svg>