<svg id="Layer_1" data-name="Layer 1" xmlns="http://www.w3.org/2000/svg" width="191" height="220" viewBox="0 0 191 220"><polygon points="96 0.4 190.9 55.2 190.9 164.8 96 219.6 1.1 164.8 1.1 55.2 96 0.4"/><path d="M44,150.5a1.7,1.7,0,0,1-1.8-1.8V126.9H18.4a1.8,1.8,0,1,1,0-3.6H31.9V111.6a1.7,1.7,0,0,1,1.8-1.8h7A57.2,57.2,0,0,1,95.8,66.1c.2-.2.4-.2.7,0a57,57,0,0,1,54.8,43.7h7a1.7,1.7,0,0,1,1.8,1.8v11.7h13.5a1.8,1.8,0,1,1,0,3.6H149.8v21.8a1.7,1.7,0,0,1-1.8,1.8Zm-8.5-37.1v9.9h121v-9.9ZM92.4,69.9c-23,1.4-42.3,18.1-47.9,39.9H63.8Zm-46.6,57v20H94.2v-20ZM94.2,73.5,68.3,109.8H94.2Zm3.6-3.8v40.1h49.7A53.6,53.6,0,0,0,97.8,69.7Zm0,57.2v20h8.1v-20Zm11.7,0v20h36.7v-20Z" fill="#fff"/></svg>